# xmcd CD database file
# Copyright (C) 1996 Ti Kan
#
# Track frame offsets:
#  150
#  14020
#  26705
#  39882
#  54765
#  67670
#  84540
#  100800
#  119775
#  143677
#  165827
#  186655
#  213505
#  235225
#  252770
#  273820
#  292927
#
# Disc length: 4130 seconds
#
# Revision: 2
# Processed by: cddbd v1.4b41PL1 Copyright (c) Steve Scherf et al.
# Submitted via: CDWizzard Release:4.12
#
DISCID=e3102011
DTITLE=Dave "Honeyboy" Edwards, Sunnyland Slim, and Big Walter Horton - 
DTITLE=Old Friends
DYEAR=1900
DGENRE=
TTITLE0=Apron Strings
TTITLE1=Gamblin' Man
TTITLE2=43rd Street Jump
TTITLE3=The War Is Over
TTITLE4=When I Came In
TTITLE5=Banty Rooster
TTITLE6=Mr. Freddy Blues
TTITLE7=Over The Seas Blues
TTITLE8=I'm A Prisoner
TTITLE9=Freedom Train
TTITLE10=Lightnin' Struck The Poor House
TTITLE11=Linda Lu
TTITLE12=Lula Mae
TTITLE13=That's All Right, I'll Be Around
TTITLE14=Heartache
TTITLE15=Sometimes I Worry
TTITLE16=I'm Going Back Home
EXTD=
EXTT0=
EXTT1=
EXTT2=
EXTT3=
EXTT4=
EXTT5=
EXTT6=
EXTT7=
EXTT8=
EXTT9=
EXTT10=
EXTT11=
EXTT12=
EXTT13=
EXTT14=
EXTT15=
EXTT16=
PLAYORDER=
